<mxfile host="app.diagrams.net" agent="Mozilla/5.0 (Macintosh; Intel Mac OS X 10_15_7) AppleWebKit/537.36 (KHTML, like Gecko) Chrome/131.0.0.0 Safari/537.36" version="26.0.4">
  <diagram name="第 1 页" id="CZtUmvLk-WmxuN-Ogijx">
    <mxGraphModel dx="1401" dy="681" grid="1" gridSize="10" guides="1" tooltips="1" connect="1" arrows="1" fold="1" page="1" pageScale="1" pageWidth="3200" pageHeight="2400" math="0" shadow="0">
      <root>
        <mxCell id="0" />
        <mxCell id="1" parent="0" />
        <mxCell id="qOWHbGiOQ7azx5kOJRqT-7" style="rounded=0;orthogonalLoop=1;jettySize=auto;html=1;exitX=0;exitY=0.5;exitDx=0;exitDy=0;entryX=1;entryY=0.5;entryDx=0;entryDy=0;" edge="1" parent="1" source="qOWHbGiOQ7azx5kOJRqT-2" target="qOWHbGiOQ7azx5kOJRqT-3">
          <mxGeometry relative="1" as="geometry" />
        </mxCell>
        <mxCell id="qOWHbGiOQ7azx5kOJRqT-10" value="Pull" style="edgeLabel;html=1;align=center;verticalAlign=middle;resizable=0;points=[];" vertex="1" connectable="0" parent="qOWHbGiOQ7azx5kOJRqT-7">
          <mxGeometry x="0.0733" relative="1" as="geometry">
            <mxPoint as="offset" />
          </mxGeometry>
        </mxCell>
        <mxCell id="qOWHbGiOQ7azx5kOJRqT-8" style="edgeStyle=orthogonalEdgeStyle;rounded=0;orthogonalLoop=1;jettySize=auto;html=1;exitX=0;exitY=0.5;exitDx=0;exitDy=0;entryX=1;entryY=0.5;entryDx=0;entryDy=0;" edge="1" parent="1" source="qOWHbGiOQ7azx5kOJRqT-2" target="qOWHbGiOQ7azx5kOJRqT-4">
          <mxGeometry relative="1" as="geometry" />
        </mxCell>
        <mxCell id="qOWHbGiOQ7azx5kOJRqT-11" value="Pull" style="edgeLabel;html=1;align=center;verticalAlign=middle;resizable=0;points=[];" vertex="1" connectable="0" parent="qOWHbGiOQ7azx5kOJRqT-8">
          <mxGeometry x="0.025" y="-1" relative="1" as="geometry">
            <mxPoint as="offset" />
          </mxGeometry>
        </mxCell>
        <mxCell id="qOWHbGiOQ7azx5kOJRqT-9" style="rounded=0;orthogonalLoop=1;jettySize=auto;html=1;exitX=0;exitY=0.5;exitDx=0;exitDy=0;entryX=1;entryY=0.5;entryDx=0;entryDy=0;" edge="1" parent="1" source="qOWHbGiOQ7azx5kOJRqT-2" target="qOWHbGiOQ7azx5kOJRqT-5">
          <mxGeometry relative="1" as="geometry" />
        </mxCell>
        <mxCell id="qOWHbGiOQ7azx5kOJRqT-12" value="Pull" style="edgeLabel;html=1;align=center;verticalAlign=middle;resizable=0;points=[];" vertex="1" connectable="0" parent="qOWHbGiOQ7azx5kOJRqT-9">
          <mxGeometry x="-0.0067" y="-2" relative="1" as="geometry">
            <mxPoint as="offset" />
          </mxGeometry>
        </mxCell>
        <mxCell id="qOWHbGiOQ7azx5kOJRqT-2" value="&lt;div&gt;&lt;span style=&quot;font-size: 14px;&quot;&gt;&lt;b&gt;[中间层]&lt;/b&gt;&lt;/span&gt;&lt;/div&gt;&lt;b&gt;&lt;font style=&quot;font-size: 14px;&quot;&gt;Prometheus Server 1&lt;/font&gt;&lt;/b&gt;" style="rounded=1;whiteSpace=wrap;html=1;fillColor=#dae8fc;strokeColor=#6c8ebf;" vertex="1" parent="1">
          <mxGeometry x="640" y="281" width="120" height="79" as="geometry" />
        </mxCell>
        <mxCell id="qOWHbGiOQ7azx5kOJRqT-3" value="&lt;b&gt;Service A&lt;/b&gt;" style="ellipse;whiteSpace=wrap;html=1;aspect=fixed;fillColor=#e1d5e7;strokeColor=#9673a6;" vertex="1" parent="1">
          <mxGeometry x="320" y="160" width="80" height="80" as="geometry" />
        </mxCell>
        <mxCell id="qOWHbGiOQ7azx5kOJRqT-4" value="&lt;b&gt;Service B&lt;/b&gt;" style="ellipse;whiteSpace=wrap;html=1;aspect=fixed;fillColor=#f8cecc;strokeColor=#b85450;" vertex="1" parent="1">
          <mxGeometry x="320" y="280" width="80" height="80" as="geometry" />
        </mxCell>
        <mxCell id="qOWHbGiOQ7azx5kOJRqT-5" value="&lt;b&gt;Service C&lt;/b&gt;" style="ellipse;whiteSpace=wrap;html=1;aspect=fixed;fillColor=#fff2cc;strokeColor=#d6b656;" vertex="1" parent="1">
          <mxGeometry x="320" y="400" width="80" height="80" as="geometry" />
        </mxCell>
        <mxCell id="qOWHbGiOQ7azx5kOJRqT-13" style="rounded=0;orthogonalLoop=1;jettySize=auto;html=1;exitX=0;exitY=0.5;exitDx=0;exitDy=0;entryX=1;entryY=0.5;entryDx=0;entryDy=0;" edge="1" parent="1" source="qOWHbGiOQ7azx5kOJRqT-19" target="qOWHbGiOQ7azx5kOJRqT-20">
          <mxGeometry relative="1" as="geometry" />
        </mxCell>
        <mxCell id="qOWHbGiOQ7azx5kOJRqT-14" value="Pull" style="edgeLabel;html=1;align=center;verticalAlign=middle;resizable=0;points=[];" vertex="1" connectable="0" parent="qOWHbGiOQ7azx5kOJRqT-13">
          <mxGeometry x="0.0733" relative="1" as="geometry">
            <mxPoint as="offset" />
          </mxGeometry>
        </mxCell>
        <mxCell id="qOWHbGiOQ7azx5kOJRqT-15" style="edgeStyle=orthogonalEdgeStyle;rounded=0;orthogonalLoop=1;jettySize=auto;html=1;exitX=0;exitY=0.5;exitDx=0;exitDy=0;entryX=1;entryY=0.5;entryDx=0;entryDy=0;" edge="1" parent="1" source="qOWHbGiOQ7azx5kOJRqT-19" target="qOWHbGiOQ7azx5kOJRqT-21">
          <mxGeometry relative="1" as="geometry" />
        </mxCell>
        <mxCell id="qOWHbGiOQ7azx5kOJRqT-16" value="Pull" style="edgeLabel;html=1;align=center;verticalAlign=middle;resizable=0;points=[];" vertex="1" connectable="0" parent="qOWHbGiOQ7azx5kOJRqT-15">
          <mxGeometry x="0.025" y="-1" relative="1" as="geometry">
            <mxPoint as="offset" />
          </mxGeometry>
        </mxCell>
        <mxCell id="qOWHbGiOQ7azx5kOJRqT-17" style="rounded=0;orthogonalLoop=1;jettySize=auto;html=1;exitX=0;exitY=0.5;exitDx=0;exitDy=0;entryX=1;entryY=0.5;entryDx=0;entryDy=0;" edge="1" parent="1" source="qOWHbGiOQ7azx5kOJRqT-19" target="qOWHbGiOQ7azx5kOJRqT-22">
          <mxGeometry relative="1" as="geometry" />
        </mxCell>
        <mxCell id="qOWHbGiOQ7azx5kOJRqT-18" value="Pull" style="edgeLabel;html=1;align=center;verticalAlign=middle;resizable=0;points=[];" vertex="1" connectable="0" parent="qOWHbGiOQ7azx5kOJRqT-17">
          <mxGeometry x="-0.0067" y="-2" relative="1" as="geometry">
            <mxPoint as="offset" />
          </mxGeometry>
        </mxCell>
        <mxCell id="qOWHbGiOQ7azx5kOJRqT-19" value="&lt;div&gt;&lt;b style=&quot;font-size: 14px;&quot;&gt;[中间层]&lt;/b&gt;&lt;b&gt;&lt;font style=&quot;font-size: 14px;&quot;&gt;&lt;/font&gt;&lt;/b&gt;&lt;/div&gt;&lt;b&gt;&lt;font style=&quot;font-size: 14px;&quot;&gt;Prometheus Server 2&lt;/font&gt;&lt;/b&gt;" style="rounded=1;whiteSpace=wrap;html=1;fillColor=#dae8fc;strokeColor=#6c8ebf;" vertex="1" parent="1">
          <mxGeometry x="640" y="682" width="120" height="78" as="geometry" />
        </mxCell>
        <mxCell id="qOWHbGiOQ7azx5kOJRqT-20" value="&lt;b&gt;Service D&lt;/b&gt;" style="ellipse;whiteSpace=wrap;html=1;aspect=fixed;fillColor=#e1d5e7;strokeColor=#9673a6;" vertex="1" parent="1">
          <mxGeometry x="320" y="560" width="80" height="80" as="geometry" />
        </mxCell>
        <mxCell id="qOWHbGiOQ7azx5kOJRqT-21" value="&lt;b&gt;Service E&lt;/b&gt;" style="ellipse;whiteSpace=wrap;html=1;aspect=fixed;fillColor=#f8cecc;strokeColor=#b85450;" vertex="1" parent="1">
          <mxGeometry x="320" y="680" width="80" height="80" as="geometry" />
        </mxCell>
        <mxCell id="qOWHbGiOQ7azx5kOJRqT-22" value="&lt;b&gt;Service F&lt;/b&gt;" style="ellipse;whiteSpace=wrap;html=1;aspect=fixed;fillColor=#fff2cc;strokeColor=#d6b656;" vertex="1" parent="1">
          <mxGeometry x="320" y="800" width="80" height="80" as="geometry" />
        </mxCell>
        <mxCell id="qOWHbGiOQ7azx5kOJRqT-24" style="rounded=0;orthogonalLoop=1;jettySize=auto;html=1;exitX=0;exitY=0.5;exitDx=0;exitDy=0;entryX=1;entryY=0.5;entryDx=0;entryDy=0;" edge="1" parent="1" source="qOWHbGiOQ7azx5kOJRqT-23" target="qOWHbGiOQ7azx5kOJRqT-19">
          <mxGeometry relative="1" as="geometry" />
        </mxCell>
        <mxCell id="qOWHbGiOQ7azx5kOJRqT-25" style="rounded=0;orthogonalLoop=1;jettySize=auto;html=1;exitX=0;exitY=0.5;exitDx=0;exitDy=0;entryX=1;entryY=0.5;entryDx=0;entryDy=0;" edge="1" parent="1" source="qOWHbGiOQ7azx5kOJRqT-23" target="qOWHbGiOQ7azx5kOJRqT-2">
          <mxGeometry relative="1" as="geometry" />
        </mxCell>
        <mxCell id="qOWHbGiOQ7azx5kOJRqT-23" value="&lt;div&gt;&lt;b&gt;&lt;font style=&quot;font-size: 14px;&quot;&gt;[中心]&lt;/font&gt;&lt;/b&gt;&lt;/div&gt;&lt;b&gt;&lt;font style=&quot;font-size: 14px;&quot;&gt;Prometheus Server&lt;/font&gt;&lt;/b&gt;" style="rounded=1;whiteSpace=wrap;html=1;fillColor=#dae8fc;strokeColor=#6c8ebf;" vertex="1" parent="1">
          <mxGeometry x="960" y="480" width="120" height="80" as="geometry" />
        </mxCell>
      </root>
    </mxGraphModel>
  </diagram>
</mxfile>
